#!OML:ASF X:\für Bonn\!DataBase\2005_08_10_Bjorn_Final\c3d\bjorn.ASF
:FULLY-SPECIFIED
:DEGREES
429
root 0.401646 2.06736 17.6097 -429.707 -172.695 -709.74
lowerback 36.8473 6.20956 6.11653
upperback 27.6861 -1.98815 3.29917
thorax 13.303 -5.94165 -0.413232
lowerneck 18.8709 -2.99496 -7.56315
upperneck 11.7804 -7.50731 -0.845608
head 0.92325 -4.84475 1.32515
rclavicle -1.45113e-014 2.54444e-014
rhumerus -182.531 -200.331 126.152
rradius 55.5125
rwrist -45.9761
rhand -13.2362 -15.4954
rfingers 7.12502
rthumb 12.8655 -45.0789
lclavicle -1.45113e-014 2.54444e-014
lhumerus 7.37989 -51.5838 35.3461
lradius 59.7525
lwrist 29.5148
lhand 24.2618 -345.766
lfingers 7.12502
lthumb 48.4826 36.2183
rfemur -88.4415 -55.5655 8.37325
rtibia 137.455
rfoot 27.239 25.8696
rtoes -1.46103
lfemur 155.606 175.162 162.459
ltibia 12.8379
lfoot 10.4557 17.7049
ltoes 5.55715
430
root 0.401527 2.06243 17.6191 -429.876 -172.788 -709.704
lowerback 36.7851 6.26696 6.05002
upperback 27.6525 -1.88365 3.25268
thorax 13.2721 -5.87629 -0.44643
lowerneck 18.8257 -3.02787 -7.65023
upperneck 11.7902 -7.5582 -0.854865
head 0.938344 -4.87226 1.33697
rclavicle 1.17283e-014 -4.45278e-014
rhumerus -181.217 -199.969 126.284
rradius 54.4618
rwrist -44.868
rhand -12.9619 -14.9729
rfingers 7.12502
rthumb 13.1299 -44.5396
lclavicle 1.17283e-014 -4.45278e-014
lhumerus 9.56758 -50.1588 34.5568
lradius 57.9792
lwrist 28.334
lhand 24.8646 -345.902
lfingers 7.12502
lthumb 49.0368 35.812
rfemur -88.0678 -54.9858 8.2262
rtibia 137.365
rfoot 27.333 25.6142
rtoes -1.4266
lfemur 155.878 175.548 162.68
ltibia 12.6182
lfoot 10.4019 17.8726
ltoes 6.02758
431
root 0.401311 2.05602 17.628 -430.032 -172.854 -709.654
lowerback 36.6905 6.31592 5.98396
upperback 27.6137 -1.7783 3.20371
thorax 13.2456 -5.80353 -0.482454
lowerneck 18.8353 -3.06017 -7.70475
upperneck 11.7792 -7.60817 -0.847495
head 0.937596 -4.89768 1.35123
rclavicle -1.37161e-014 -6.36111e-015
rhumerus -179.974 -199.587 126.358
rradius 53.4519
rwrist -43.8234
rhand -12.6421 -14.4614
rfingers 7.12502
rthumb 13.4382 -44.0079
lclavicle -1.37161e-014 -6.36111e-015
lhumerus 11.565 -48.775 33.9931
lradius 56.276
lwrist 27.4084
lhand 25.5808 -345.901
lfingers 7.12502
lthumb 49.6939 35.4815
rfemur -87.7573 -54.4101 8.11562
rtibia 137.267
rfoot 27.3905 25.413
rtoes -1.80735
lfemur 156.116 175.969 162.879
ltibia 12.4149
lfoot 10.4492 17.9827
ltoes 6.228
432
root 0.401031 2.05053 17.6382 -430.197 -172.925 -709.603
lowerback 36.5928 6.37408 5.89463
upperback 27.5812 -1.67519 3.17711
thorax 13.2281 -5.74172 -0.482937
lowerneck 18.8616 -3.07196 -7.81747
upperneck 11.7175 -7.63902 -0.812598
head 0.919939 -4.91243 1.38582
rclavicle -1.19271e-015 -3.18055e-015
rhumerus -178.762 -199.249 126.461
rradius 52.5234
rwrist -42.817
rhand -12.2431 -13.8499
rfingers 7.12502
rthumb 13.8228 -43.3706
lclavicle -1.19271e-015 -3.18055e-015
lhumerus 13.3568 -47.3422 33.7169
lradius 54.5861
lwrist 26.7588
lhand 26.455 -345.888
lfingers 7.12502
lthumb 50.4935 35.0719
rfemur -87.4155 -53.7121 8.01939
rtibia 137.127
rfoot 27.4275 25.1767
rtoes -2.22884
lfemur 156.362 176.32 163.06
ltibia 12.2211
lfoot 10.5581 18.0938
ltoes 5.9278
433
root 0.400962 2.0445 17.647 -430.366 -172.983 -709.575
lowerback 36.4642 6.44941 5.7963
upperback 27.5776 -1.56546 3.13851
thorax 13.258 -5.68017 -0.499164
lowerneck 18.8785 -3.09137 -7.89191
upperneck 11.6364 -7.66636 -0.782494
head 0.895515 -4.92122 1.41246
rclavicle 0 3.02153e-014
rhumerus -177.593 -198.855 126.489
rradius 51.6277
rwrist -41.8547
rhand -11.8024 -13.1706
rfingers 7.12502
rthumb 14.2474 -42.6619
lclavicle 0 3.02153e-014
lhumerus 15.0502 -45.8881 33.5512
lradius 52.91
lwrist 26.2311
lhand 27.4489 -345.969
lfingers 7.12502
lthumb 51.3995 34.4869
rfemur -87.0817 -52.967 7.92155
rtibia 136.96
rfoot 27.5271 24.9153
rtoes -2.58983
lfemur 156.607 176.67 163.223
ltibia 12.0497
lfoot 10.6215 18.2734
ltoes 5.40146
434
root 0.400457 2.0388 17.656 -430.553 -173.046 -709.522
lowerback 36.3462 6.51575 5.73469
upperback 27.5713 -1.45514 3.10475
thorax 13.2837 -5.61278 -0.528196
lowerneck 18.9266 -3.11107 -7.94248
upperneck 11.547 -7.6936 -0.711929
head 0.864237 -4.92896 1.44978
rclavicle 3.39922e-014 -1.59028e-015
rhumerus -176.506 -198.453 126.496
rradius 50.8008
rwrist -40.9302
rhand -11.3553 -12.4673
rfingers 7.12502
rthumb 14.6782 -41.9277
lclavicle 3.39922e-014 -1.59028e-015
lhumerus 16.6041 -44.4486 33.5715
lradius 51.2591
lwrist 25.8239
lhand 28.4107 -346.156
lfingers 7.12502
lthumb 52.2726 33.7859
rfemur -86.6922 -52.1451 7.83528
rtibia 136.748
rfoot 27.6212 24.6473
rtoes -2.99462
lfemur 156.863 177.05 163.406
ltibia 11.8936
lfoot 10.6466 18.4702
ltoes 4.91435
435
root 0.400531 2.03231 17.665 -430.735 -173.103 -709.472
lowerback 36.2123 6.58757 5.64308
upperback 27.5698 -1.34951 3.0868
thorax 13.3201 -5.5555 -0.524644
lowerneck 18.9498 -3.12366 -7.99528
upperneck 11.4685 -7.70909 -0.695478
head 0.837897 -4.93149 1.46802
rclavicle -3.43897e-014 4.13472e-014
rhumerus -175.463 -198.005 126.462
rradius 50.0126
rwrist -39.9858
rhand -10.8988 -11.8635
rfingers 7.12502
rthumb 15.118 -41.2913
lclavicle -3.43897e-014 4.13472e-014
lhumerus 17.9592 -42.937 33.854
lradius 49.7105
lwrist 25.5038
lhand 29.3169 -346.123
lfingers 7.12502
lthumb 53.0918 33.3106
rfemur -86.341 -51.2534 7.80559
rtibia 136.498
rfoot 27.7297 24.3741
rtoes -3.39609
lfemur 157.097 177.368 163.556
ltibia 11.7601
lfoot 10.7803 18.5856
ltoes 4.08518
436
root 0.399658 2.02681 17.6737 -430.928 -173.141 -709.425
lowerback 36.0567 6.66094 5.57201
upperback 27.5967 -1.24764 3.04488
thorax 13.402 -5.4973 -0.562425
lowerneck 18.8262 -3.15146 -7.98327
upperneck 11.4925 -7.71803 -0.694091
head 0.865006 -4.93164 1.4614
rclavicle -1.33186e-014 -5.08889e-014
rhumerus -174.504 -197.531 126.366
rradius 49.3162
rwrist -38.9938
rhand -10.4412 -11.4259
rfingers 7.12502
rthumb 15.5588 -40.8201
lclavicle -1.33186e-014 -5.08889e-014
lhumerus 19.241 -41.4253 34.1886
lradius 48.3034
lwrist 25.2515
lhand 30.5486 -345.609
lfingers 7.12502
lthumb 54.1995 33.0935
rfemur -85.9682 -50.3544 7.74082
rtibia 136.218
rfoot 27.9243 24.087
rtoes -3.70728
lfemur 157.36 177.706 163.694
ltibia 11.6324
lfoot 10.7422 18.7997
ltoes 3.73149
437
root 0.399435 2.0207 17.6829 -431.143 -173.177 -709.372
lowerback 35.9148 6.74331 5.49749
upperback 27.638 -1.1479 3.02066
thorax 13.499 -5.44915 -0.580609
lowerneck 18.6787 -3.18122 -7.98325
upperneck 11.4953 -7.72403 -0.684816
head 0.889367 -4.92793 1.45906
rclavicle -5.68524e-014 3.33958e-014
rhumerus -173.529 -197.043 126.266
rradius 48.6053
rwrist -37.9636
rhand -10.0464 -10.9163
rfingers 7.12502
rthumb 15.939 -40.2805
lclavicle -5.68524e-014 3.33958e-014
lhumerus 20.4196 -39.9024 34.7037
lradius 46.9311
lwrist 24.7376
lhand 31.6305 -345.062
lfingers 7.12502
lthumb 55.1666 32.955
rfemur -85.5618 -49.3995 7.6991
rtibia 135.903
rfoot 28.0551 23.8264
rtoes -4.12904
lfemur 157.632 177.937 163.797
ltibia 11.5221
lfoot 10.7642 18.9131
ltoes 3.46517
438
root 0.398504 2.01567 17.6928 -431.347 -173.213 -709.321
lowerback 35.7436 6.82388 5.43577
upperback 27.6798 -1.04144 2.99315
thorax 13.6079 -5.39156 -0.610828
lowerneck 18.553 -3.20765 -7.98983
upperneck 11.5018 -7.73158 -0.648622
head 0.912986 -4.92615 1.46747
rclavicle 7.35503e-015 1.74931e-014
rhumerus -172.638 -196.518 126.12
rradius 47.9261
rwrist -36.8541
rhand -9.63502 -10.3911
rfingers 7.12502
rthumb 16.3351 -39.7231
lclavicle 7.35503e-015 1.74931e-014
lhumerus 21.5085 -38.4869 35.3001
lradius 45.701
lwrist 23.9856
lhand 32.3398 -344.677
lfingers 7.12502
lthumb 55.7974 32.8685
rfemur -85.1603 -48.3399 7.66207
rtibia 135.543
rfoot 28.3181 23.4522
rtoes -4.15751
lfemur 157.9 178.186 163.897
ltibia 11.4129
lfoot 10.7013 19.03
ltoes 3.3034
439
root 0.398061 2.01029 17.7024 -431.559 -173.258 -709.257
lowerback 35.5791 6.89375 5.35715
upperback 27.7122 -0.950515 2.9703
thorax 13.7017 -5.34507 -0.622183
lowerneck 18.4624 -3.21942 -8.01891
upperneck 11.4981 -7.73086 -0.629002
head 0.927657 -4.9223 1.4756
rclavicle 2.66371e-014 4.77083e-015
rhumerus -171.771 -196.031 125.969
rradius 47.2878
rwrist -35.8257
rhand -9.23985 -9.85973
rfingers 7.12502
rthumb 16.7155 -39.1601
lclavicle 2.66371e-014 4.77083e-015
lhumerus 22.431 -37.0926 36.0599
lradius 44.5979
lwrist 23.0485
lhand 32.7783 -344.534
lfingers 7.12502
lthumb 56.1859 32.7108
rfemur -84.7617 -47.2354 7.67633
rtibia 135.153
rfoot 28.5142 23.1218
rtoes -4.52079
lfemur 158.164 178.368 163.993
ltibia 11.3191
lfoot 10.6462 19.097
ltoes 3.21159
440
root 0.396861 2.00503 17.7117 -431.784 -173.289 -709.184
lowerback 35.4285 6.95965 5.32384
upperback 27.7457 -0.849273 2.93311
thorax 13.7952 -5.28311 -0.673942
lowerneck 18.3567 -3.26214 -7.96684
upperneck 11.5135 -7.75277 -0.606962
head 0.949046 -4.92639 1.47034
rclavicle -1.74931e-014 -4.29375e-014
rhumerus -170.996 -195.419 125.717
rradius 46.6478
rwrist -34.8022
rhand -8.82052 -9.35407
rfingers 7.12502
rthumb 17.1192 -38.6199
lclavicle -1.74931e-014 -4.29375e-014
lhumerus 23.3597 -35.7827 36.8256
lradius 43.5953
lwrist 21.9456
lhand 33.0516 -344.62
lfingers 7.12502
lthumb 56.4276 32.433
rfemur -84.3005 -46.0832 7.66154
rtibia 134.706
rfoot 28.7377 22.7266
rtoes -4.79205
lfemur 158.436 178.517 164.056
ltibia 11.2433
lfoot 10.5815 19.0925
ltoes 3.10628
441
root 0.395487 2.00007 17.7213 -432.007 -173.305 -709.115
lowerback 35.2781 7.02177 5.254
upperback 27.7672 -0.755256 2.89851
thorax 13.8707 -5.22863 -0.699976
lowerneck 18.255 -3.28015 -7.96722
upperneck 11.5659 -7.76055 -0.582446
head 0.983554 -4.92988 1.47343
rclavicle -1.19271e-015 2.06736e-014
rhumerus -170.246 -194.841 125.476
rradius 46.0571
rwrist -33.8288
rhand -8.37847 -8.86366
rfingers 7.12502
rthumb 17.5446 -38.092
lclavicle -1.19271e-015 2.06736e-014
lhumerus 24.1432 -34.4629 37.774
lradius 42.6717
lwrist 20.6045
lhand 33.1206 -344.945
lfingers 7.12502
lthumb 56.4885 32.059
rfemur -83.8587 -44.8855 7.6668
rtibia 134.212
rfoot 28.983 22.3065
rtoes -5.12544
lfemur 158.7 178.768 164.128
ltibia 11.1813
lfoot 10.4249 19.1555
ltoes 2.88753
442
root 0.394666 1.99509 17.7307 -432.254 -173.349 -709.03
lowerback 35.1448 7.088 5.22246
upperback 27.7955 -0.653456 2.87837
thorax 13.9527 -5.1698 -0.732301
lowerneck 18.1799 -3.31441 -7.89566
upperneck 11.5786 -7.77332 -0.587462
head 0.997034 -4.92978 1.45685
rclavicle 5.76476e-015 1.11319e-014
rhumerus -169.541 -194.243 125.22
rradius 45.5024
rwrist -32.9125
rhand -7.94191 -8.37198
rfingers 7.12502
rthumb 17.9647 -37.5623
lclavicle 5.76476e-015 1.11319e-014
lhumerus 24.9014 -33.2178 38.7547
lradius 41.8416
lwrist 19.236
lhand 32.8804 -345.4
lfingers 7.12502
lthumb 56.2763 31.7737
rfemur -83.344 -43.623 7.70831
rtibia 133.665
rfoot 29.1474 21.8645
rtoes -5.54496
lfemur 158.975 178.91 164.204
ltibia 11.1422
lfoot 10.2965 19.0878
ltoes 2.88316
443
root 0.39356 1.99014 17.7402 -432.481 -173.363 -708.965
lowerback 34.9971 7.15406 5.16143
upperback 27.8096 -0.5444 2.83463
thorax 14.0187 -5.10246 -0.773666
lowerneck 18.1717 -3.34905 -7.81371
upperneck 11.5652 -7.79333 -0.582351
head 0.9918 -4.93286 1.44532
rclavicle -5.76476e-015 3.33958e-014
rhumerus -168.909 -193.624 124.9
rradius 44.9748
rwrist -31.9234
rhand -7.42597 -7.89833
rfingers 7.12502
rthumb 18.4611 -37.0423
lclavicle -5.76476e-015 3.33958e-014
lhumerus 25.6062 -32.0787 39.76
lradius 41.0957
lwrist 17.7545
lhand 32.2585 -345.886
lfingers 7.12502
lthumb 55.7251 31.7149
rfemur -82.8816 -42.3304 7.74538
rtibia 133.079
rfoot 29.3682 21.3289
rtoes -5.70001
lfemur 159.216 179.081 164.249
ltibia 11.124
lfoot 10.1271 19.0775
ltoes 3.00293
